<?xml version="1.0" encoding="iso-8859-1"?>
<!-- Generator: Adobe Illustrator 19.0.0, SVG Export Plug-In . SVG Version: 6.00 Build 0)  -->
<svg version="1.1" id="Layer_1" xmlns="http://www.w3.org/2000/svg" xmlns:xlink="http://www.w3.org/1999/xlink" x="0px" y="0px"
	 viewBox="0 0 512 512" style="enable-background:new 0 0 512 512;" xml:space="preserve">
<path style="fill:#E09B2D;" d="M149.255,149.261v-0.011c12.366-12.366,26.878-22.61,42.929-30.102
	c15.624-7.29,32.696-11.996,50.668-13.546c4.336-0.371,8.727-0.562,13.153-0.562c13.512,0,26.609,1.775,39.065,5.099
	c17.252,4.616,33.292,12.198,47.523,22.195c7.2,5.043,13.939,10.704,20.139,16.915h0.011c6.211,6.2,11.872,12.939,16.915,20.15
	c9.996,14.231,17.589,30.27,22.206,47.523c3.325,12.468,5.099,25.564,5.099,39.076c0,4.437-0.191,8.817-0.562,13.153
	c-1.55,17.971-6.256,35.044-13.546,50.656c-7.492,16.051-17.735,30.551-30.113,42.929v0.011
	c-12.366,12.366-26.878,22.61-42.929,30.102c-15.613,7.29-32.674,11.985-50.645,13.546c-4.336,0.371-8.727,0.562-13.164,0.562
	c-13.523,0-26.62-1.775-39.087-5.099c-17.252-4.616-33.292-12.209-47.523-22.195c-7.2-5.054-13.939-10.715-20.139-16.915v-0.011
	c-6.211-6.2-11.883-12.951-16.927-20.15c-9.985-14.231-17.578-30.259-22.183-47.512c-3.336-12.468-5.111-25.564-5.111-39.076
	c0-4.425,0.191-8.817,0.562-13.153c1.55-17.971,6.256-35.044,13.546-50.668C126.633,176.14,136.877,161.628,149.255,149.261z"/>
<path style="fill:#D8912A;" d="M401.863,216.923c-4.616-17.252-12.209-33.292-22.206-47.523c-5.043-7.211-10.704-13.95-16.915-20.15
	h-0.011c-6.2-6.211-12.939-11.872-20.139-16.915c-14.231-9.997-30.27-17.578-47.523-22.195c-12.456-3.325-25.553-5.099-39.065-5.099
	c-4.338,0-8.643,0.186-12.895,0.543c9.056,0.751,17.89,2.281,26.419,4.557c17.252,4.616,33.292,12.198,47.523,22.195
	c7.2,5.043,13.939,10.704,20.139,16.915h0.011c6.211,6.2,11.872,12.939,16.915,20.15c9.997,14.231,17.589,30.27,22.206,47.523
	c3.325,12.468,5.099,25.564,5.099,39.076c0,4.437-0.191,8.817-0.562,13.153c-1.55,17.971-6.256,35.044-13.546,50.656
	c-7.492,16.051-17.735,30.551-30.113,42.929v0.011c-12.366,12.366-26.878,22.61-42.929,30.102
	c-15.613,7.29-32.674,11.985-50.645,13.546c-0.089,0.008-0.179,0.012-0.267,0.02c4.17,0.345,8.384,0.541,12.645,0.541
	c4.437,0,8.828-0.191,13.164-0.562c17.971-1.561,35.033-6.256,50.645-13.546c16.051-7.492,30.562-17.735,42.929-30.102v-0.011
	c12.378-12.378,22.621-26.878,30.113-42.929c7.29-15.613,11.996-32.685,13.546-50.656c0.371-4.336,0.562-8.716,0.562-13.153
	C406.962,242.487,405.188,229.391,401.863,216.923z"/>
<g>
	<path style="fill:#2BA5F7;" d="M198.136,313.867c6.526,6.515,6.526,17.084,0,23.61c-6.515,6.515-17.084,6.515-23.61,0
		c-6.515-6.526-6.515-17.095,0-23.61C181.053,307.341,191.622,307.341,198.136,313.867z"/>
	<path style="fill:#2BA5F7;" d="M337.47,313.867c6.526,6.515,6.526,17.084,0,23.61c-6.515,6.515-17.084,6.515-23.61,0
		c-6.515-6.526-6.515-17.095,0-23.61h0.011C320.397,307.341,330.955,307.341,337.47,313.867z"/>
	<path style="fill:#2BA5F7;" d="M198.136,174.533c6.526,6.515,6.526,17.073,0,23.599v0.011c-6.515,6.515-17.084,6.515-23.61,0
		c-6.515-6.526-6.515-17.095,0-23.61C181.053,168.008,191.622,168.008,198.136,174.533z"/>
	<path style="fill:#2BA5F7;" d="M267.809,244.195c6.515,6.526,6.515,17.095,0,23.61c-6.526,6.515-17.095,6.515-23.61,0
		c-6.526-6.515-6.526-17.084,0-23.61C250.714,237.68,261.283,237.68,267.809,244.195z"/>
	<path style="fill:#2BA5F7;" d="M313.86,198.143c-6.515-6.526-6.515-17.095,0-23.61c6.526-6.526,17.095-6.526,23.61,0
		c6.526,6.515,6.526,17.084,0,23.61C330.955,204.658,320.386,204.658,313.86,198.143z"/>
</g>
<path style="fill:#E09B2D;" d="M503.58,255.999h-0.146H459.09c0-18.185-2.392-35.808-6.874-52.577
	c-6.2-23.205-16.41-44.782-29.844-63.933c-6.795-9.693-14.422-18.757-22.767-27.103l31.36-31.36l0.09-0.101
	C475.86,125.73,503.58,187.619,503.58,255.999z"/>
<path style="fill:#B27214;" d="M503.434,255.999h0.146c0,68.369-27.709,130.258-72.514,175.063l-0.101-0.101l-31.349-31.349
	l-0.011-0.011c16.646-16.646,30.416-36.167,40.503-57.755c9.806-21.004,16.129-43.973,18.218-68.145
	c0.505-5.829,0.764-11.737,0.764-17.702H503.434z"/>
<path style="fill:#F95428;" d="M459.09,255.999c0,5.964-0.258,11.872-0.764,17.702l-51.926-4.549
	c0.371-4.336,0.562-8.716,0.562-13.153c0-13.512-1.775-26.609-5.099-39.076l50.32-13.49l0.034-0.011
	C456.698,220.192,459.09,237.815,459.09,255.999z"/>
<g>
	<path style="fill:#4D4D4D;" d="M406.401,269.152l51.926,4.549c-2.089,24.171-8.413,47.141-18.218,68.145l-0.045-0.022
		l-47.208-22.015C400.145,304.196,404.851,287.123,406.401,269.152z"/>
	<path style="fill:#4D4D4D;" d="M452.216,203.422l-0.034,0.011l-50.32,13.49c-4.616-17.252-12.209-33.292-22.206-47.523l42.704-29.9
		l0.011-0.011C435.806,158.64,446.016,180.217,452.216,203.422z"/>
</g>
<path style="fill:#F95428;" d="M440.063,341.823l0.045,0.022c-10.086,21.588-23.857,41.109-40.503,57.755l-36.864-36.852v-0.011
	c12.378-12.378,22.621-26.878,30.113-42.929L440.063,341.823z"/>
<path style="fill:#E09B2D;" d="M430.965,430.961l0.101,0.101c-44.805,44.805-106.704,72.514-175.063,72.514v-0.146v-44.344
	c5.964,0,11.872-0.258,17.702-0.764c24.183-2.089,47.152-8.413,68.156-18.23c21.588-10.086,41.098-23.846,57.744-40.491l0.011,0.011
	L430.965,430.961z"/>
<path style="fill:#B27214;" d="M431.055,80.926l-0.09,0.101l-31.36,31.36c-8.345-8.345-17.41-15.972-27.103-22.767
	c-19.151-13.434-40.716-23.643-63.922-29.844c-16.769-4.482-34.392-6.874-52.577-6.874V8.558V8.423
	C324.351,8.423,386.251,36.132,431.055,80.926z"/>
<path style="fill:#F95428;" d="M422.373,139.49l-0.011,0.011l-42.704,29.9c-5.043-7.211-10.704-13.95-16.915-20.15h-0.011
	c-6.2-6.211-12.939-11.872-20.139-16.915l29.9-42.704l0.011-0.011c9.693,6.795,18.758,14.422,27.103,22.767
	S415.577,129.796,422.373,139.49z"/>
<g>
	<path style="fill:#4D4D4D;" d="M362.742,362.749l36.864,36.852c-16.646,16.646-36.156,30.405-57.744,40.491l-0.022-0.034
		l-22.026-47.208C335.864,385.359,350.376,375.115,362.742,362.749z"/>
	<path style="fill:#4D4D4D;" d="M372.503,89.619l-0.011,0.011l-29.9,42.704c-14.231-9.997-30.27-17.578-47.523-22.195l13.501-50.331
		l0.011-0.034C331.786,65.976,353.352,76.186,372.503,89.619z"/>
</g>
<g>
	<path style="fill:#F95428;" d="M341.839,440.059l0.022,0.034c-21.004,9.817-43.973,16.14-68.156,18.23v-0.011l-4.538-51.914
		c17.971-1.561,35.033-6.256,50.645-13.546L341.839,440.059z"/>
	<path style="fill:#F95428;" d="M308.581,59.776l-0.011,0.034l-13.501,50.331c-12.456-3.325-25.553-5.099-39.065-5.099
		c-4.425,0-8.817,0.191-13.153,0.562l-4.549-51.937c5.829-0.505,11.737-0.764,17.702-0.764
		C274.189,52.902,291.812,55.294,308.581,59.776z"/>
</g>
<path style="fill:#4D4D4D;" d="M273.706,458.311v0.011c-5.829,0.505-11.737,0.764-17.702,0.764c-18.185,0-35.808-2.392-52.577-6.874
	l0.011-0.045l13.478-50.308c12.468,3.325,25.564,5.099,39.087,5.099c4.437,0,8.828-0.191,13.164-0.562L273.706,458.311z"/>
<path style="fill:#B27214;" d="M256.004,503.43v0.146c-68.369,0-130.269-27.709-175.063-72.514l0.09-0.101l31.36-31.36
	c8.345,8.357,17.421,15.983,27.114,22.767c19.139,13.434,40.716,23.643,63.922,29.844c16.769,4.482,34.392,6.874,52.577,6.874
	V503.43z"/>
<path style="fill:#E09B2D;" d="M256.004,8.558v44.344c-5.964,0-11.872,0.258-17.702,0.764c-24.183,2.089-47.141,8.402-68.156,18.218
	c-21.588,10.086-41.109,23.846-57.755,40.491v0.011h-0.011l-31.349-31.36l-0.09-0.09C125.735,36.132,187.635,8.423,256.004,8.423
	V8.558z"/>
<path style="fill:#4D4D4D;" d="M238.302,53.666l4.549,51.937c-17.971,1.55-35.044,6.256-50.668,13.546l-22.015-47.219l-0.022-0.045
	C191.161,62.067,214.12,55.755,238.302,53.666z"/>
<g>
	<path style="fill:#F95428;" d="M216.916,401.859l-13.478,50.308l-0.011,0.045c-23.205-6.2-44.782-16.41-63.922-29.844l0.011-0.011
		l29.877-42.682v-0.011C183.625,389.649,199.664,397.242,216.916,401.859z"/>
	<path style="fill:#F95428;" d="M170.169,71.929l22.015,47.219c-16.051,7.492-30.562,17.735-42.929,30.102l-36.864-36.864v-0.011
		c16.646-16.646,36.167-30.405,57.755-40.491L170.169,71.929z"/>
</g>
<g>
	<path style="fill:#4D4D4D;" d="M169.394,379.664v0.011l-29.877,42.682l-0.011,0.011c-9.693-6.784-18.769-14.411-27.114-22.767
		c-8.345-8.334-15.983-17.41-22.779-27.114l0.022-0.011l42.682-29.877l0.011-0.011c5.043,7.2,10.715,13.95,16.927,20.15v0.011
		C155.455,368.949,162.194,374.61,169.394,379.664z"/>
	<path style="fill:#4D4D4D;" d="M149.255,149.25v0.011c-12.378,12.366-22.621,26.878-30.113,42.918l-47.208-22.026l-0.045-0.022
		c10.086-21.588,23.846-41.098,40.491-57.744h0.011L149.255,149.25z"/>
</g>
<g>
	<path style="fill:#F95428;" d="M132.328,342.587l-0.011,0.011l-42.682,29.877l-0.022,0.011
		c-13.434-19.151-23.643-40.716-29.844-63.922l0.056-0.011l50.32-13.478C114.75,312.328,122.343,328.356,132.328,342.587z"/>
	<path style="fill:#F95428;" d="M71.933,170.153l47.208,22.026c-7.29,15.624-11.996,32.696-13.546,50.668l-51.914-4.56h-0.022
		c2.089-24.183,8.413-47.152,18.23-68.156L71.933,170.153z"/>
</g>
<path style="fill:#E09B2D;" d="M112.391,399.601l-31.36,31.36l-0.09,0.101C36.137,386.257,8.427,324.369,8.427,255.999h0.124h44.344
	c0,18.173,2.392,35.797,6.874,52.566c6.2,23.205,16.41,44.771,29.844,63.922C96.408,382.191,104.046,391.267,112.391,399.601z"/>
<path style="fill:#B27214;" d="M81.031,81.027l31.349,31.36c-16.646,16.646-30.405,36.156-40.491,57.744
	c-9.817,21.004-16.14,43.973-18.23,68.156c-0.505,5.829-0.764,11.749-0.764,17.713H8.551H8.427
	c0-68.369,27.709-130.258,72.514-175.063L81.031,81.027z"/>
<path style="fill:#4D4D4D;" d="M110.145,295.076l-50.32,13.478l-0.056,0.011c-4.482-16.769-6.874-34.392-6.874-52.566
	c0-5.964,0.258-11.883,0.764-17.713h0.022l51.914,4.56c-0.371,4.336-0.562,8.727-0.562,13.153
	C105.034,269.512,106.809,282.608,110.145,295.076z"/>
<path style="fill:#FFFFFF;" d="M479.776,239.74c-4.246,0-7.896-3.2-8.365-7.516c-5.349-49.35-26.855-94.114-62.195-129.455
	c-25.684-25.676-57.437-44.588-91.825-54.689c-4.464-1.311-7.02-5.992-5.708-10.457c1.311-4.465,5.995-7.02,10.457-5.708
	c37.086,10.893,71.316,31.273,98.989,58.939c38.087,38.087,61.266,86.344,67.033,139.554c0.501,4.625-2.842,8.781-7.467,9.283
	C480.386,239.723,480.08,239.74,479.776,239.74z"/>
<g>
	<path style="fill:#333333;" d="M437.017,74.979C388.664,26.628,324.378,0,255.999,0C187.618,0,123.33,26.628,74.978,74.979
		S0,187.618,0,256.001c0,68.378,26.628,132.665,74.978,181.017C123.33,485.371,187.619,512,255.999,512
		c68.376,0,132.664-26.629,181.018-74.983S512,324.377,512,256.001C512,187.619,485.371,123.331,437.017,74.979z M494.988,247.577
		h-27.657c-2.046-51.98-22.932-99.195-56.011-134.994l19.542-19.541C468.933,133.865,492.913,187.98,494.988,247.577z
		 M255.999,450.666c-14.488,0-28.608-1.604-42.201-4.621l9.141-34.117c10.67,2.26,21.727,3.457,33.06,3.457
		c1.836,0,3.662-0.043,5.482-0.104l3.078,35.187C261.721,450.591,258.869,450.666,255.999,450.666z M206.667,407.56l-9.144,34.127
		c-16.422-5.182-31.914-12.484-46.146-21.589l20.259-28.934C182.508,397.976,194.255,403.511,206.667,407.56z M281.346,449.016
		l-3.078-35.194c13.021-1.829,25.542-5.234,37.362-10.02l14.928,32.009C315.059,442.263,298.553,446.769,281.346,449.016z
		 M345.818,428.666l-14.929-32.007c11.449-6.12,22.069-13.595,31.641-22.214l24.967,24.959
		C374.994,410.88,360.99,420.742,345.818,428.666z M255.999,398.537c-78.595,0-142.537-63.942-142.537-142.537
		s63.942-142.537,142.537-142.537s142.537,63.942,142.537,142.537S334.596,398.537,255.999,398.537z M255.999,61.322
		c14.488,0,28.608,1.604,42.201,4.621l-9.147,34.127c-10.668-2.259-21.723-3.456-33.054-3.456c-1.832,0-3.655,0.043-5.472,0.104
		l-3.085-35.198C250.281,61.398,253.132,61.322,255.999,61.322z M305.326,104.438l9.15-34.135
		c16.422,5.184,31.912,12.486,46.145,21.591l-20.26,28.939C329.487,114.022,317.74,108.488,305.326,104.438z M230.657,62.971
		l3.085,35.206c-13.022,1.827-25.544,5.232-37.366,10.019l-14.934-32.019C196.945,69.725,213.449,65.219,230.657,62.971z
		 M166.185,83.32l14.934,32.017c-11.452,6.121-22.075,13.597-31.651,22.219l-24.967-24.976
		C137.006,101.106,151.011,91.245,166.185,83.32z M411.928,222.941l34.116-9.147c3.017,13.595,4.621,27.716,4.621,42.206
		c0,2.866-0.075,5.716-0.199,8.552l-35.187-3.076c0.062-1.818,0.104-3.641,0.104-5.476
		C415.385,244.667,414.187,233.611,411.928,222.941z M407.561,206.668c-4.051-12.415-9.587-24.163-16.398-35.036l28.935-20.257
		c9.105,14.232,16.405,29.722,21.589,46.145L407.561,206.668z M381.487,157.839c-7.976-10.174-17.159-19.356-27.333-27.332
		l20.248-28.922c13.51,10.384,25.621,22.497,36.005,36.008L381.487,157.839z M399.408,100.668
		C363.61,67.59,316.399,46.704,264.425,44.657V17.013c59.59,2.075,113.701,26.049,154.525,64.115L399.408,100.668z M247.575,44.657
		c-51.979,2.046-99.192,22.932-134.993,56.012L92.963,81.05c42.363-39.545,96.691-62.048,154.612-64.039V44.657z M112.588,124.495
		l24.968,24.976c-8.617,9.572-16.092,20.19-22.211,31.638l-32.018-14.933C91.25,151.003,101.112,136.998,112.588,124.495z
		 M76.18,181.432l32.019,14.934c-4.787,11.823-8.194,24.345-10.021,37.369l-35.206-3.087
		C65.22,213.441,69.727,196.935,76.18,181.432z M96.72,250.519c-0.062,1.821-0.104,3.645-0.104,5.48
		c0,11.331,1.197,22.387,3.456,33.055l-34.129,9.143c-3.016-13.593-4.62-27.711-4.62-42.198c0-2.871,0.075-5.725,0.199-8.566
		L96.72,250.519z M104.438,305.327c4.049,12.411,9.582,24.157,16.391,35.028l-28.937,20.263
		c-9.106-14.232-16.408-29.723-21.591-46.146L104.438,305.327z M130.504,354.148c7.977,10.177,17.163,19.364,27.34,27.341
		l-20.248,28.918c-13.512-10.385-25.626-22.498-36.012-36.01L130.504,354.148z M112.581,411.321
		c35.801,33.078,83.015,53.964,134.994,56.011v27.657c-59.596-2.075-113.712-26.055-154.536-64.126L112.581,411.321z
		 M264.423,467.331c51.975-2.046,99.187-22.931,134.986-56.009l19.545,19.545c-40.824,38.068-94.938,62.046-154.53,64.12V467.331
		L264.423,467.331z M399.41,387.492l-24.967-24.959c8.622-9.576,16.099-20.2,22.22-31.653l32.007,14.927
		C420.748,360.981,410.886,374.986,399.41,387.492z M435.814,330.55l-32.009-14.929c4.785-11.821,8.189-24.34,10.018-37.36
		l35.194,3.078C446.771,298.545,442.265,315.049,435.814,330.55z M81.05,92.963l19.619,19.619
		c-33.079,35.8-53.965,83.015-56.012,134.993H17.01C19.002,189.655,41.505,135.327,81.05,92.963z M17.012,264.425h27.644
		c2.046,51.974,22.932,99.186,56.011,134.983l-19.54,19.54C43.063,378.125,19.087,324.014,17.012,264.425z M430.868,418.955
		l-19.545-19.545c33.077-35.799,53.962-83.009,56.009-134.984h27.657C492.913,324.017,468.935,378.131,430.868,418.955z"/>
	<path style="fill:#333333;" d="M325.667,211.44c6.433,0,12.864-2.449,17.761-7.346c9.793-9.793,9.793-25.728,0-35.521
		c-9.793-9.794-25.729-9.793-35.521,0c-7.702,7.702-9.319,19.191-4.907,28.516l-36.244,36.244c-6.792-3.213-14.718-3.213-21.509,0
		l-36.245-36.245c4.412-9.325,2.795-20.814-4.907-28.516c-9.793-9.794-25.729-9.793-35.521,0c-9.793,9.793-9.793,25.728,0,35.521
		c4.896,4.897,11.329,7.346,17.761,7.346c3.684,0,7.359-0.831,10.755-2.438l36.244,36.244c-3.213,6.792-3.213,14.718,0,21.509
		l-36.245,36.244c-9.324-4.412-20.814-2.795-28.516,4.907c-9.793,9.793-9.793,25.728,0,35.521
		c4.896,4.897,11.329,7.346,17.761,7.346c6.433,0,12.864-2.449,17.761-7.346c7.702-7.702,9.319-19.191,4.907-28.516l36.245-36.244
		c3.395,1.607,7.071,2.439,10.756,2.439c3.684,0,7.359-0.831,10.755-2.439l36.245,36.244c-4.412,9.324-2.795,20.814,4.907,28.516
		c4.896,4.897,11.329,7.346,17.761,7.346c6.433,0,12.864-2.449,17.761-7.346c9.793-9.793,9.793-25.728,0-35.521
		c-7.701-7.702-19.191-9.319-28.516-4.907l-36.245-36.244c3.214-6.792,3.214-14.718,0-21.509L314.915,209
		C318.308,210.609,321.983,211.44,325.667,211.44z M319.82,180.485c1.562-1.562,3.639-2.422,5.847-2.422
		c2.209,0,4.286,0.86,5.849,2.422c3.225,3.225,3.225,8.471,0,11.696c-3.225,3.224-8.47,3.225-11.696,0
		c-1.562-1.562-2.422-3.639-2.422-5.849C317.398,184.125,318.258,182.048,319.82,180.485z M180.485,192.181
		c-1.562-1.562-2.422-3.639-2.422-5.849c0-2.208,0.86-4.285,2.422-5.847s3.639-2.422,5.847-2.422c2.209,0,4.286,0.86,5.849,2.422
		c3.225,3.225,3.225,8.471,0,11.696C188.957,195.404,183.711,195.405,180.485,192.181z M192.181,331.515
		c-3.225,3.224-8.47,3.225-11.696,0c-1.562-1.562-2.422-3.639-2.422-5.847s0.86-4.285,2.422-5.847
		c1.613-1.612,3.73-2.418,5.847-2.418c2.118,0,4.236,0.806,5.849,2.418C195.405,323.045,195.405,328.291,192.181,331.515z
		 M250.152,261.848c-1.562-1.562-2.422-3.639-2.422-5.849c0-2.208,0.86-4.285,2.422-5.847c1.561-1.562,3.639-2.422,5.847-2.422
		c2.209,0,4.286,0.86,5.849,2.422c3.225,3.225,3.225,8.471,0,11.696C258.623,265.072,253.377,265.073,250.152,261.848z
		 M331.515,319.82c3.225,3.225,3.225,8.471,0,11.695s-8.47,3.225-11.696,0c-1.562-1.562-2.422-3.639-2.422-5.847
		s0.86-4.285,2.422-5.847c1.613-1.612,3.73-2.418,5.847-2.418C327.786,317.402,329.903,318.208,331.515,319.82z"/>
</g>
<circle style="fill:#FFFFFF;" cx="288.967" cy="33.267" r="8.424"/>
<g>
</g>
<g>
</g>
<g>
</g>
<g>
</g>
<g>
</g>
<g>
</g>
<g>
</g>
<g>
</g>
<g>
</g>
<g>
</g>
<g>
</g>
<g>
</g>
<g>
</g>
<g>
</g>
<g>
</g>
</svg>
